<?xml version="1.0" encoding="utf-8"?>
<!-- Generator: Adobe Illustrator 22.0.1, SVG Export Plug-In . SVG Version: 6.00 Build 0)  -->
<svg version="1.1" id="Layer_1" xmlns="http://www.w3.org/2000/svg" xmlns:xlink="http://www.w3.org/1999/xlink" x="0px" y="0px"
	 viewBox="0 0 64 64" style="enable-background:new 0 0 64 64;" xml:space="preserve">
<path d="M60.3,42.4l-8.5-8.5c-4.3-4.3-11.2-4.8-16-1.3l-4.8-4.8c1.3-2.1,2.1-4.5,2.1-6.9c0-3.5-1.3-6.7-3.7-9l-8-8.2
	c-4.8-4.8-12.8-4.8-17.6,0C1.5,6,0.2,8.9,0.2,12.4s1.3,6.4,3.7,8.8l8.2,8.5c2.4,2.4,5.6,3.7,8.8,3.7c2.1,0,4.5-0.5,6.4-1.9l5.1,5.1
	c-1.1,1.9-1.9,4-1.9,6.4c0,3.5,1.3,6.4,3.7,8.8l8.2,8.5c2.4,2.4,5.6,3.7,8.8,3.7c3.2,0,6.4-1.3,8.8-3.7c2.4-2.4,3.7-5.3,3.7-8.8
	C64,48,62.7,44.8,60.3,42.4z M15.9,25.9l-8.2-8.5c-1.3-1.3-2.1-3.2-2.1-5.1s0.8-3.7,2.1-5.1s3.2-2.1,5.1-2.1s3.7,0.8,5.1,2.1
	l8.5,8.5c1.3,1.3,2.1,3.2,2.1,5.1c0,1.1-0.3,2.1-0.8,3.2l-2.4-2.4c-1.1-1.1-2.7-1.1-3.7,0c-1.1,1.1-1.1,2.7,0,3.7l2.1,2.1
	C20.9,28.3,18,27.8,15.9,25.9z M56.6,56.3L56.6,56.3c-2.9,2.9-7.5,2.9-10.1,0L38,47.8c-1.3-1.3-2.1-3.2-2.1-5.1
	c0-0.8,0.3-1.6,0.5-2.4l2.1,2.1c0.5,0.5,1.3,0.8,1.9,0.8c0.8,0,1.3-0.3,1.9-0.8c1.1-1.1,1.1-2.7,0-3.7l-2.1-2.4
	c1.1-0.5,2.1-0.8,3.2-0.8c1.9,0,3.7,0.8,5.1,2.1l8.5,8.5c1.3,1.3,2.1,3.2,2.1,5.1C58.7,53.1,57.9,55,56.6,56.3z"/>
</svg>
