<?xml version="1.0" encoding="utf-8"?>
<!-- Generator: Adobe Illustrator 23.0.0, SVG Export Plug-In . SVG Version: 6.00 Build 0)  -->
<svg version="1.1" id="Layer_1" xmlns="http://www.w3.org/2000/svg" xmlns:xlink="http://www.w3.org/1999/xlink" x="0px" y="0px"
	 viewBox="0 0 64 64" style="enable-background:new 0 0 64 64;" xml:space="preserve">
<g>
	<g>
		<path d="M21.3,34.7c-1.6,0-2.7-1.1-2.7-2.7c0-1.6,1.1-2.7,2.7-2.7h21.3l0,0c1.6,0,2.7,1.1,2.7,2.7c0,1.6-1.1,2.7-2.7,2.7H21.3
			L21.3,34.7z"/>
	</g>
	<g>
		<path d="M32,64C14.4,64,0,49.6,0,32S14.4,0,32,0s32,14.4,32,32S49.6,64,32,64z M32,5.3C17.3,5.3,5.3,17.3,5.3,32
			s12,26.7,26.7,26.7s26.7-12,26.7-26.7S46.7,5.3,32,5.3z"/>
	</g>
</g>
</svg>
