<?xml version="1.0" encoding="utf-8"?>
<!-- Generator: Adobe Illustrator 21.0.2, SVG Export Plug-In . SVG Version: 6.00 Build 0)  -->
<svg version="1.1" id="Layer_2_1_" xmlns="http://www.w3.org/2000/svg" xmlns:xlink="http://www.w3.org/1999/xlink" x="0px" y="0px"
	 viewBox="0 0 64 64" style="enable-background:new 0 0 64 64;" xml:space="preserve">
<g>
	<path d="M21.2,33.8c-5.1,0-9.2,4.1-9.2,9.2s4.1,9.2,9.2,9.2s9.2-4.1,9.2-9.2C30.4,37.9,26.2,33.8,21.2,33.8z M21.2,47.2
		c-2.3,0-4.2-1.9-4.2-4.2s1.9-4.2,4.2-4.2s4.2,1.9,4.2,4.2C25.4,45.3,23.5,47.2,21.2,47.2z"/>
	<path d="M42,35.7L38.1,29c-0.7-1.2-2.3-1.7-3.6-1.2L31,29.7l0,0c-0.6-0.5-1.3-1.1-2.2-1.6v-2c0-2.3-1.9-4.2-4.2-4.2h-6.7
		c-2.3,0-4.2,1.9-4.2,4.2v2.1c-0.9,0.5-1.6,1.1-2.2,1.6l-2.9-1.6c-1.9-1.1-3.6-0.3-4.3,0.9l-3.7,6.3c-0.4,0.7-0.5,1.5-0.3,2.3
		s0.7,1.4,1.4,1.8l3.1,1.7c-0.1,0.5-0.1,1.1-0.1,1.7c0,0.5,0,1.1,0.1,1.6l-3.3,1.8C0.2,47-0.3,48.6,0.3,50l3.9,6.6
		c0.7,1.2,2.3,1.7,3.6,1.2l3.5-1.9c0.7,0.6,1.3,1.1,2.2,1.6v2.3c0,2.3,1.9,4.2,4.2,4.2h6.7c2.3,0,4.2-1.9,4.2-4.2v-2.4
		c0.9-0.5,1.5-1.1,2.2-1.6l2.9,1.6c1.9,1.1,3.5,0.3,4.3-0.9l3.7-6.3c0.4-0.7,0.5-1.5,0.3-2.3s-0.7-1.4-1.4-1.8l-3.1-1.7
		c0.1-0.6,0.1-1.1,0.1-1.7c0-0.6,0-1.1-0.1-1.7l3.2-1.8C42,38.6,42.5,37.1,42,35.7z M32.5,41c0.1,0.5,0.1,1.1,0.1,1.8
		c0,0.6-0.1,1.2-0.2,1.8c-0.3,1.5,0.5,3.1,1.8,3.8l2.1,1.1l-1.6,2.7l-2.3-1.3c-1.3-0.7-2.8-0.6-3.9,0.3c-0.3,0.3-0.6,0.5-0.9,0.7
		c-0.6,0.5-1,0.9-1.6,1.1c-1.4,0.7-2.4,2.2-2.4,3.8V59h-5.1v-2c0-1.6-0.9-3.1-2.4-3.8c-0.6-0.3-1-0.6-1.6-1.2
		c-0.3-0.2-0.5-0.5-0.9-0.7c-1.1-0.9-2.7-1-3.9-0.3l-2.3,1.3l-1.6-2.7L8,48.4c1.3-0.7,2-2.2,1.8-3.6c-0.1-0.6-0.1-1.2-0.1-1.9
		s0-1.3,0.1-1.8c0.3-1.5-0.5-3.1-1.8-3.8l-2.1-1.2l1.6-2.7l2.3,1.3c1.3,0.7,2.8,0.6,3.9-0.3c0.3-0.2,0.6-0.5,0.8-0.7
		c0.7-0.6,1.1-0.9,1.6-1.2c1.4-0.7,2.4-2.2,2.4-3.8V27h5.1v1.7c0,1.6,0.9,3.1,2.4,3.8c0.5,0.3,0.9,0.6,1.6,1.1
		c0.3,0.2,0.6,0.5,0.9,0.8c1.1,0.9,2.7,1,3.9,0.3l2.3-1.3l1.6,2.7l-2.1,1.2C32.9,38,32.2,39.5,32.5,41z"/>
	<path d="M52.6,20.4c0-5-4-9-9-9s-9,4-9,9s4,9,9,9S52.6,25.4,52.6,20.4z M43.5,24.4c-2.2,0-4-1.8-4-4s1.8-4,4-4s4,1.8,4,4
		S45.8,24.4,43.5,24.4z"/>
	<path d="M62.4,23.4l-3-1.6c0.1-0.5,0.1-1,0.1-1.5c0-0.6,0-1.1-0.1-1.6l3.1-1.7c1.2-0.7,1.7-2.3,1.2-3.6L60,6.9l-0.1-0.1
		c-0.8-1.2-2.3-1.6-3.6-1.1L53,7.5c-0.6-0.5-1.2-1-2.1-1.5V4.1C50.9,1.8,49,0,46.8,0h-6.5c-2.3,0-4.1,1.8-4.1,4.1v2
		c-0.8,0.5-1.5,1-2.1,1.5C32.8,6.9,31.3,6,31.3,6c-1.8-1-3.5-0.3-4.2,0.9L23.5,13c-0.7,1.2-0.3,2.7,0.9,3.4c1.2,0.7,2.7,0.3,3.4-0.9
		l2.5-4.3c0.8,0.4,1.6,0.9,2.2,1.2c1.2,0.7,2.8,0.5,3.9-0.4c0.3-0.2,0.5-0.4,0.8-0.6c0.6-0.5,1-0.9,1.6-1.1c1.4-0.7,2.4-2.1,2.4-3.7
		V5H46v1.5c0,1.6,0.9,3.1,2.3,3.7c0.5,0.2,0.9,0.6,1.5,1.1c0.3,0.2,0.6,0.5,0.9,0.7c1.1,0.9,2.6,1,3.9,0.3l2.2-1.2l1.5,2.5l-2,1.1
		c-1.3,0.7-2,2.3-1.8,3.8c0.1,0.5,0.1,1,0.1,1.7c0,0.5,0,1.1-0.1,1.7c-0.3,1.5,0.5,3,1.8,3.8l1.9,1l-1.5,2.5
		c-0.8-0.4-1.6-0.9-2.2-1.2c-1.2-0.7-2.8-0.6-3.9,0.3c-0.3,0.3-0.6,0.5-0.9,0.7c-0.6,0.5-1,0.8-1.5,1.1c-1.2,0.6-1.8,2.1-1.2,3.3
		s2.1,1.8,3.3,1.2c1.1-0.5,1.8-1.1,2.5-1.8c1.2,0.7,2.8,1.5,2.8,1.5c0.6,0.3,1.2,0.5,1.8,0.5c1.1,0,1.9-0.6,2.4-1.3l3.7-6.2
		c0.4-0.7,0.5-1.5,0.3-2.3C63.6,24.4,63.1,23.8,62.4,23.4z"/>
</g>
</svg>
