<?xml version="1.0" encoding="utf-8"?>
<!-- Generator: Adobe Illustrator 23.0.0, SVG Export Plug-In . SVG Version: 6.00 Build 0)  -->
<svg version="1.1" id="Layer_2_1_" xmlns="http://www.w3.org/2000/svg" xmlns:xlink="http://www.w3.org/1999/xlink" x="0px" y="0px"
	 viewBox="0 0 64 64" style="enable-background:new 0 0 64 64;" xml:space="preserve">
<g>
	<path d="M16.3,34.7H40c1.6,0,2.7-1.1,2.7-2.7c0-1.6-1.1-2.7-2.7-2.7H16.8l3.7-3.7c1.1-1.1,1.1-2.7,0-3.7c-1.1-1.1-2.7-1.1-3.7,0
		l-7.5,7.5C8.5,30.1,8,31.2,8,32.3c0,1.1,0.5,2.1,1.3,2.9l7.5,7.5c0.5,0.5,1.1,0.8,1.9,0.8s1.3-0.3,1.9-0.8c1.1-1.1,1.1-2.7,0-3.7
		L16.3,34.7z"/>
	<path d="M50.7,0h-16c-2.9,0-5.3,2.4-5.3,5.3V16c0,1.6,1.1,2.7,2.7,2.7c1.6,0,2.7-1.1,2.7-2.7V5.3h16v53.3h-16V48
		c0-1.6-1.1-2.7-2.7-2.7c-1.6,0-2.7,1.1-2.7,2.7v10.7c0,2.9,2.4,5.3,5.3,5.3h16c2.9,0,5.3-2.4,5.3-5.3V5.3C56,2.4,53.6,0,50.7,0z"/>
</g>
</svg>
