<?xml version="1.0" encoding="utf-8"?>
<!-- Generator: Adobe Illustrator 22.0.1, SVG Export Plug-In . SVG Version: 6.00 Build 0)  -->
<svg version="1.1" id="Layer_1" xmlns="http://www.w3.org/2000/svg" xmlns:xlink="http://www.w3.org/1999/xlink" x="0px" y="0px"
	 viewBox="0 0 64 64" style="enable-background:new 0 0 64 64;" xml:space="preserve">
<path d="M63.4,25.1c-0.5-0.5-1.3-1.1-2.1-1.1H56v-5.3c0-2.9-2.4-5.3-5.3-5.3h-24l-2.1-4.8c-0.8-1.9-2.7-3.2-4.8-3.2H5.3
	C2.4,5.3,0,7.7,0,10.7v42.7c0,2.9,2.4,5.3,5.3,5.3h45.3c1.1,0,2.1-0.8,2.4-1.9l10.7-29.3C64.2,26.7,64,25.9,63.4,25.1z M5.3,10.7
	h14.4l2.7,6.4c0.5,1.1,1.3,1.6,2.4,1.6h25.9V24H18.1c-1.1,0-2.1,0.5-2.4,1.6L5.3,50.7V10.7z M48.8,53.3H9.9l9.9-24h37.6L48.8,53.3z"
	/>
</svg>
